# xmcd
#
# Track frame offsets:
#	150
#	9742
#	20552
#	33710
#	44359
#	53968
#	60613
#	75150
#	88245
#	96552
#	107449
#
# Disc length: 1598 seconds
# Revision: 1
# Processed by: cddbd v1.5.2PL0 Copyright (c) Steve Scherf et al.
# Submitted via: dBpowerAMP V12.0
#
DISCID=8a063c0b
DTITLE=Johnny Cash - Complete Columbia Album Collection, Disc 38 [Children's Album]
DYEAR=1975
DGENRE=Country
TTITLE0=Nasty Dan
TTITLE1=One and One Makes Two
TTITLE2=I Got a Boy (and His Name is John)
TTITLE3=Little Magic Glasses
TTITLE4=Miss Tara
TTITLE5=Dinosaur Song
TTITLE6=Tiger Whitehead
TTITLE7=Call of the Wild
TTITLE8=Little Green Fountain
TTITLE9=Old Shep
TTITLE10=(The) Timber Man
EXTD=
EXTT0=
EXTT1=
EXTT2=
EXTT3=
EXTT4=
EXTT5=
EXTT6=
EXTT7=
EXTT8=
EXTT9=
EXTT10=
PLAYORDER=
